<?xml version="1.0" encoding="utf-8"?>
<!-- Generator: Adobe Illustrator 27.0.0, SVG Export Plug-In . SVG Version: 6.00 Build 0)  -->
<svg version="1.1" id="Layer_1" xmlns="http://www.w3.org/2000/svg" xmlns:xlink="http://www.w3.org/1999/xlink" x="0px" y="0px"
	 viewBox="0 0 500 500" style="enable-background:new 0 0 500 500;" xml:space="preserve">
<style type="text/css">
	.st0{opacity:0.3;}
	.st1{clip-path:url(#SVGID_00000041284121144680595270000009919538270849003690_);}
	.st2{fill:#FF3E00;}
	.st3{fill:#FFFFFF;}
	.st4{clip-path:url(#SVGID_00000111890992121257815160000013855186557433876671_);}
	.st5{clip-path:url(#SVGID_00000165945384503028398690000013810583394946478243_);}
</style>
<g class="st0">
	<defs>
		<rect id="SVGID_1_" x="263" y="103" class="st0" width="230" height="276"/>
	</defs>
	<clipPath id="SVGID_00000143577507327498980780000007431004954988909705_">
		<use xlink:href="#SVGID_1_"  style="overflow:visible;"/>
	</clipPath>
	<g style="clip-path:url(#SVGID_00000143577507327498980780000007431004954988909705_);">
		<path class="st2" d="M478.2,139.5c-25.6-36.7-76.4-47.5-113-24.3l-64.5,41.2c-17.6,11-29.8,29-33.3,49.4
			c-3,17.1-0.5,34.6,7.7,49.8c-5.6,8.4-9.4,17.8-11,27.6c-3.8,20.8,1.2,42.3,13.4,59.4c25.8,36.7,76.4,47.5,113,24.3l64.5-40.9
			c17.6-11,29.8-29,33.3-49.4c3-17.1,0.5-34.6-7.7-49.8c5.6-8.4,9.4-17.8,11-27.6C495.6,178.1,490.7,156.6,478.2,139.5z"/>
		<path class="st3" d="M358.9,346c-20.9,5.4-42.7-2.8-54.9-20.3c-7.5-10.3-10.3-23.2-8.2-35.8c0.5-2.1,0.9-4,1.4-6.1l1.2-3.7
			l3.3,2.3c7.7,5.6,16.2,9.8,25.3,12.6l2.3,0.7l-0.2,2.3c-0.2,3.3,0.7,6.8,2.6,9.6c3.8,5.4,10.3,8,16.6,6.3c1.4-0.5,2.8-0.9,4-1.6
			l64.2-40.9c3.3-2.1,5.4-5.1,6.1-8.9c0.7-3.7-0.2-7.7-2.3-10.8c-3.8-5.4-10.3-7.7-16.6-6.1c-1.4,0.5-2.8,0.9-4,1.6L375.1,263
			c-4,2.6-8.4,4.4-13.1,5.6c-20.9,5.4-42.7-2.8-54.9-20.3c-7.3-10.3-10.3-23.2-8-35.8c2.1-12.2,9.6-23.2,20.2-29.7l64.5-40.9
			c4-2.6,8.4-4.4,13.1-5.8c20.9-5.4,42.7,2.8,54.9,20.3c7.5,10.3,10.3,23.2,8.2,35.8c-0.5,2.1-0.9,4-1.6,6.1l-1.2,3.7l-3.3-2.3
			c-7.7-5.6-16.2-9.8-25.3-12.6l-2.3-0.7l0.2-2.3c0.2-3.3-0.7-6.8-2.6-9.6c-3.8-5.4-10.3-7.7-16.6-6.1c-1.4,0.5-2.8,0.9-4,1.6
			L339,210.8c-3.3,2.1-5.4,5.1-6.1,8.9c-0.7,3.7,0.2,7.7,2.3,10.8c3.8,5.4,10.3,7.7,16.6,6.1c1.4-0.5,2.8-0.9,4-1.6l24.6-15.7
			c4-2.6,8.4-4.4,13.1-5.8c20.9-5.4,42.7,2.8,54.9,20.3c7.5,10.3,10.3,23.2,8.2,35.8c-2.1,12.2-9.6,23.2-20.2,29.7L372,340.2
			C368,342.7,363.6,344.6,358.9,346z"/>
	</g>
</g>
<g class="st0">
	<defs>
		<rect id="SVGID_00000012460918685649482730000002532862803361272971_" x="10" y="112" class="st0" width="230" height="276"/>
	</defs>
	<clipPath id="SVGID_00000155108231801246491700000001034097429533582222_">
		<use xlink:href="#SVGID_00000012460918685649482730000002532862803361272971_"  style="overflow:visible;"/>
	</clipPath>
	<g style="clip-path:url(#SVGID_00000155108231801246491700000001034097429533582222_);">
		<path class="st2" d="M225.2,148.5c-25.6-36.7-76.4-47.5-113-24.3l-64.5,41.2c-17.6,11-29.8,29-33.3,49.4
			c-3,17.1-0.5,34.6,7.7,49.8c-5.6,8.4-9.4,17.8-11,27.6c-3.8,20.8,1.2,42.3,13.4,59.4c25.8,36.7,76.4,47.5,113,24.3l64.5-40.9
			c17.6-11,29.8-29,33.3-49.4c3-17.1,0.5-34.6-7.7-49.8c5.6-8.4,9.4-17.8,11-27.6C242.6,187.1,237.7,165.6,225.2,148.5z"/>
		<path class="st3" d="M105.9,355c-20.9,5.4-42.7-2.8-54.9-20.3c-7.5-10.3-10.3-23.2-8.2-35.8c0.5-2.1,0.9-4,1.4-6.1l1.2-3.7
			l3.3,2.3c7.7,5.6,16.2,9.8,25.3,12.6l2.3,0.7l-0.2,2.3c-0.2,3.3,0.7,6.8,2.6,9.6c3.8,5.4,10.3,8,16.6,6.3c1.4-0.5,2.8-0.9,4-1.6
			l64.2-40.9c3.3-2.1,5.4-5.1,6.1-8.9c0.7-3.7-0.2-7.7-2.3-10.8c-3.8-5.4-10.3-7.7-16.6-6.1c-1.4,0.5-2.8,0.9-4,1.6L122.1,272
			c-4,2.6-8.4,4.4-13.1,5.6c-20.9,5.4-42.7-2.8-54.9-20.3c-7.3-10.3-10.3-23.2-8-35.8c2.1-12.2,9.6-23.2,20.2-29.7l64.5-40.9
			c4-2.6,8.4-4.4,13.1-5.8c20.9-5.4,42.7,2.8,54.9,20.3c7.5,10.3,10.3,23.2,8.2,35.8c-0.5,2.1-0.9,4-1.6,6.1l-1.2,3.7l-3.3-2.3
			c-7.7-5.6-16.2-9.8-25.3-12.6l-2.3-0.7l0.2-2.3c0.2-3.3-0.7-6.8-2.6-9.6c-3.8-5.4-10.3-7.7-16.6-6.1c-1.4,0.5-2.8,0.9-4,1.6
			L86,219.8c-3.3,2.1-5.4,5.1-6.1,8.9c-0.7,3.7,0.2,7.7,2.3,10.8c3.8,5.4,10.3,7.7,16.6,6.1c1.4-0.5,2.8-0.9,4-1.6l24.6-15.7
			c4-2.6,8.4-4.4,13.1-5.8c20.9-5.4,42.7,2.8,54.9,20.3c7.5,10.3,10.3,23.2,8.2,35.8c-2.1,12.2-9.6,23.2-20.2,29.7L119,349.2
			C115,351.7,110.6,353.6,105.9,355z"/>
	</g>
</g>
<g>
	<defs>
		<rect id="SVGID_00000014596601282580630730000002747479687708819120_" x="137" y="103" width="230" height="276"/>
	</defs>
	<clipPath id="SVGID_00000093861319015025566030000004991623717276019118_">
		<use xlink:href="#SVGID_00000014596601282580630730000002747479687708819120_"  style="overflow:visible;"/>
	</clipPath>
	<g style="clip-path:url(#SVGID_00000093861319015025566030000004991623717276019118_);">
		<path class="st2" d="M352.2,139.5c-25.6-36.7-76.4-47.5-113-24.3l-64.5,41.2c-17.6,11-29.8,29-33.3,49.4
			c-3,17.1-0.5,34.6,7.7,49.8c-5.6,8.4-9.4,17.8-11,27.6c-3.8,20.8,1.2,42.3,13.4,59.4c25.8,36.7,76.4,47.5,113,24.3l64.5-40.9
			c17.6-11,29.8-29,33.3-49.4c3-17.1,0.5-34.6-7.7-49.8c5.6-8.4,9.4-17.8,11-27.6C369.6,178.1,364.7,156.6,352.2,139.5z"/>
		<path class="st3" d="M232.9,346c-20.9,5.4-42.7-2.8-54.9-20.3c-7.5-10.3-10.3-23.2-8.2-35.8c0.5-2.1,0.9-4,1.4-6.1l1.2-3.7
			l3.3,2.3c7.7,5.6,16.2,9.8,25.3,12.6l2.3,0.7l-0.2,2.3c-0.2,3.3,0.7,6.8,2.6,9.6c3.8,5.4,10.3,8,16.6,6.3c1.4-0.5,2.8-0.9,4-1.6
			l64.2-40.9c3.3-2.1,5.4-5.1,6.1-8.9c0.7-3.7-0.2-7.7-2.3-10.8c-3.8-5.4-10.3-7.7-16.6-6.1c-1.4,0.5-2.8,0.9-4,1.6L249.1,263
			c-4,2.6-8.4,4.4-13.1,5.6c-20.9,5.4-42.7-2.8-54.9-20.3c-7.3-10.3-10.3-23.2-8-35.8c2.1-12.2,9.6-23.2,20.2-29.7l64.5-40.9
			c4-2.6,8.4-4.4,13.1-5.8c20.9-5.4,42.7,2.8,54.9,20.3c7.5,10.3,10.3,23.2,8.2,35.8c-0.5,2.1-0.9,4-1.6,6.1l-1.2,3.7l-3.3-2.3
			c-7.7-5.6-16.2-9.8-25.3-12.6l-2.3-0.7l0.2-2.3c0.2-3.3-0.7-6.8-2.6-9.6c-3.8-5.4-10.3-7.7-16.6-6.1c-1.4,0.5-2.8,0.9-4,1.6
			L213,210.8c-3.3,2.1-5.4,5.1-6.1,8.9c-0.7,3.7,0.2,7.7,2.3,10.8c3.8,5.4,10.3,7.7,16.6,6.1c1.4-0.5,2.8-0.9,4-1.6l24.6-15.7
			c4-2.6,8.4-4.4,13.1-5.8c20.9-5.4,42.7,2.8,54.9,20.3c7.5,10.3,10.3,23.2,8.2,35.8c-2.1,12.2-9.6,23.2-20.2,29.7L246,340.2
			C242,342.7,237.6,344.6,232.9,346z"/>
	</g>
</g>
</svg>
