<?xml version="1.0" encoding="utf-8"?>
<!-- Generator: Adobe Illustrator 27.0.0, SVG Export Plug-In . SVG Version: 6.00 Build 0)  -->
<svg version="1.1" id="Layer_1" xmlns="http://www.w3.org/2000/svg" xmlns:xlink="http://www.w3.org/1999/xlink" x="0px" y="0px"
	 viewBox="0 0 98.1 118" style="enable-background:new 0 0 98.1 118;" xml:space="preserve">
<style type="text/css">
	.st0{fill:#FF3E00;}
	.st1{fill:#FF6700;}
	.st2{display:none;fill:#EBEBEB;}
	.st3{display:none;fill:#FFFFFF;}
	.st4{fill-rule:evenodd;clip-rule:evenodd;fill:#FFFFFF;}
	.st5{fill-rule:evenodd;clip-rule:evenodd;fill:#EBEBEB;}
</style>
<path class="st0" d="M10.2,102.1l-8.6-97h95l-8.6,97l-39,10.8"/>
<path class="st1" d="M49,104.6V13.1h38.8l-7.4,82.8"/>
<path class="st2" d="M40.8,79.5c-0.4,0.2-0.9,0.4-1.3,0.5c-2,0.5-4.1-0.3-5.3-2c-0.6-0.8-0.9-2-0.8-3l0.1-0.7l-0.7-0.2
	c-2.9-0.9-5.5-2.2-8-4l-1-0.7l-0.4,1.2c-0.1,0.6-0.3,1.2-0.4,1.9c-0.7,4,0.2,8.1,2.6,11.4c3.9,5.6,10.8,8.2,17.4,6.5
	c1.5-0.5,2.9-1.1,4.2-1.9l1.8-1.1c0-4.3,0-8.7,0-13.1L40.8,79.5z"/>
<path class="st2" d="M30.3,38.4c-3.4,2-5.7,5.5-6.4,9.4c-0.8,4,0.2,8.1,2.5,11.4c3.9,5.6,10.8,8.2,17.4,6.5c1.5-0.4,2.9-1,4.2-1.8
	l1-0.6c0-4.2,0-8.4,0-12.6l-6.9,4.4c-0.4,0.2-0.9,0.4-1.3,0.5c-2,0.6-4.1-0.2-5.3-1.9c-0.6-0.9-0.9-2.2-0.7-3.4s0.9-2.1,1.9-2.8
	L49,39.7c0-4.4,0-8.8,0-13.1L30.3,38.4z"/>
<path class="st3" d="M72.4,30c-3.9-5.6-10.8-8.2-17.4-6.5c-1.5,0.5-2.9,1.1-4.2,1.9L49,26.5c0,4.3,0,8.7,0,13.1l8.1-5.2
	c0.4-0.2,0.9-0.4,1.3-0.5c2-0.6,4.1,0.2,5.3,1.9c0.6,0.8,0.9,2,0.8,3l-0.1,0.7l0.7,0.2c2.9,0.9,5.5,2.2,8,4l1,0.7l0.4-1.2
	c0.2-0.6,0.4-1.2,0.5-1.9C75.7,37.4,74.8,33.3,72.4,30z"/>
<path class="st3" d="M55.8,58.9c0.4-0.2,0.9-0.4,1.3-0.5c2-0.6,4.1,0.2,5.3,1.9c0.6,0.9,0.9,2.2,0.7,3.4c-0.2,1.2-0.9,2.1-1.9,2.8
	L49,74.3c0,4.4,0,8.8,0,13.1l18.7-11.9c3.4-2,5.7-5.5,6.4-9.4c0.7-4-0.2-8.1-2.6-11.4c-3.9-5.6-10.8-8.2-17.4-6.5
	c-1.5,0.5-2.9,1.1-4.2,1.9L49,50.7c0,4.2,0,8.4,0,12.6L55.8,58.9z"/>
<path class="st4" d="M52,57V43c0-1.7-1.3-3-3-3c0,0,0,0,0,0c0,6.6,0,13.3,0,19.9c0,0,0,0,0,0C50.7,59.9,52,58.6,52,57z"/>
<path class="st5" d="M46.1,43v14c0,1.6,1.3,3,2.9,3c0-6.6,0-13.3,0-19.9C47.4,40,46.1,41.3,46.1,43z"/>
<path class="st5" d="M45.1,67.9c0,2.2,1.8,4,3.9,4c0-2.7,0-5.3,0-8C46.8,64,45.1,65.7,45.1,67.9z"/>
<path class="st4" d="M53,67.9c0-2.2-1.8-4-4-4c0,0,0,0,0,0c0,2.7,0,5.3,0,8c0,0,0,0,0,0C51.3,71.9,53,70.1,53,67.9z"/>
<path class="st4" d="M49,24C49,24,49,24,49,24c0,2,0,4,0,6c0,0,0,0,0,0C63.4,30,75,41.6,75,56S63.4,81.9,49,81.9c0,0,0,0,0,0
	c0,2,0,4,0,6c0,0,0,0,0,0C66.7,87.9,81,73.6,81,56C81,38.3,66.7,24,49,24z"/>
<path class="st5" d="M23.1,56C23.1,41.6,34.7,30,49,30c0-2,0-4,0-6C31.4,24,17.1,38.3,17.1,56c0,17.6,14.3,31.9,31.9,31.9
	c0-2,0-4,0-6C34.7,81.9,23.1,70.3,23.1,56z"/>
</svg>
