<?xml version="1.0" encoding="utf-8"?>
<!-- Generator: Adobe Illustrator 27.0.0, SVG Export Plug-In . SVG Version: 6.00 Build 0)  -->
<svg version="1.1" id="Layer_1" xmlns="http://www.w3.org/2000/svg" xmlns:xlink="http://www.w3.org/1999/xlink" x="0px" y="0px"
	 viewBox="0 0 98.1 118" style="enable-background:new 0 0 98.1 118;" xml:space="preserve">
<style type="text/css">
	.st0{fill:#E44D26;}
	.st1{fill:#F16529;}
	.st2{fill:#FFFFFF;}
</style>
<path class="st0" d="M10.2,102.1l-8.6-97h95l-8.6,97l-39,10.8"/>
<path class="st1" d="M49,104.6V13.1h38.8l-7.4,82.8"/>
<g>
	<path class="st2" d="M27.3,27.8v3.5h43.4c1.7,0,3.1,1.6,3.1,3.5v48.5c0,1.9-1.4,3.5-3.1,3.5H27.3c-1.7,0-3.1-1.6-3.1-3.5V34.8
		c0-1.9,1.4-3.5,3.1-3.5V27.8v-3.5c-5.1,0-9.3,4.7-9.3,10.4v48.5c0,5.7,4.2,10.4,9.3,10.4h43.4c5.1,0,9.3-4.7,9.3-10.4V34.8
		c0-5.7-4.2-10.4-9.3-10.4H27.3V27.8z"/>
	<path class="st2" d="M21.1,52.1H77c1.7,0,3.1-1.6,3.1-3.5c0-1.9-1.4-3.5-3.1-3.5H21.1c-1.7,0-3.1,1.6-3.1,3.5
		C18,50.5,19.4,52.1,21.1,52.1"/>
	<path class="st2" d="M42.8,90.2V48.6c0-1.9-1.4-3.5-3.1-3.5s-3.1,1.6-3.1,3.5v41.6c0,1.9,1.4,3.5,3.1,3.5S42.8,92.1,42.8,90.2"/>
</g>
</svg>
