<?xml version="1.0" encoding="utf-8"?>
<!-- Generator: Adobe Illustrator 27.0.0, SVG Export Plug-In . SVG Version: 6.00 Build 0)  -->
<svg version="1.1" id="Layer_1" xmlns="http://www.w3.org/2000/svg" xmlns:xlink="http://www.w3.org/1999/xlink" x="0px" y="0px"
	 viewBox="0 0 98.1 118" style="enable-background:new 0 0 98.1 118;" xml:space="preserve">
<style type="text/css">
	.st0{fill:#E44D26;}
	.st1{fill:#F16529;}
	.st2{fill:#3178C6;}
	.st3{fill-rule:evenodd;clip-rule:evenodd;fill:#FFFFFF;}
	.st4{fill:#F7DF1E;}
</style>
<path class="st0" d="M10.1,102.1l-8.6-97h95l-8.6,97l-39,10.8"/>
<path class="st1" d="M49,104.6V13.1h38.8l-7.4,82.8"/>
<path class="st2" d="M21.2,30.2h54.6c1.6,0,2.8,1.3,2.8,2.8v54.6c0,1.6-1.3,2.8-2.8,2.8H21.2c-1.6,0-2.8-1.3-2.8-2.8V33
	C18.4,31.5,19.6,30.2,21.2,30.2z"/>
<path class="st3" d="M51.7,67.4V74c1.2,0.6,2.5,1,3.8,1.2c1.5,0.3,3.1,0.4,4.6,0.4c1.5,0,3-0.1,4.5-0.5c1.3-0.3,2.6-0.8,3.7-1.5
	c1.1-0.7,1.9-1.6,2.5-2.7c1.1-2.3,1.2-4.9,0.4-7.3c-0.4-0.9-0.9-1.7-1.5-2.4c-0.7-0.7-1.5-1.4-2.4-1.9c-1-0.6-2.1-1.1-3.2-1.6
	c-0.9-0.4-1.6-0.7-2.3-1c-0.6-0.3-1.2-0.6-1.7-1c-0.4-0.3-0.8-0.7-1.1-1.1c-0.3-0.4-0.4-0.9-0.4-1.3c0-0.4,0.1-0.9,0.3-1.2
	c0.3-0.4,0.6-0.7,1-0.9c0.5-0.3,1-0.5,1.6-0.6c0.7-0.1,1.4-0.2,2.1-0.2c0.6,0,1.2,0,1.7,0.1c0.6,0.1,1.2,0.2,1.8,0.4
	c0.6,0.2,1.2,0.4,1.8,0.6c0.6,0.3,1.1,0.6,1.6,0.9v-6.2c-1.1-0.4-2.2-0.7-3.3-0.9c-1.4-0.2-2.7-0.3-4.1-0.3c-1.5,0-3,0.2-4.4,0.5
	c-1.3,0.3-2.6,0.8-3.7,1.6c-1,0.7-1.9,1.6-2.5,2.7c-0.6,1.2-1,2.6-0.9,4c0,1.8,0.6,3.6,1.7,5c1.4,1.6,3.2,2.8,5.1,3.5
	c0.9,0.4,1.7,0.7,2.5,1.1c0.7,0.3,1.4,0.7,2,1.1c0.5,0.3,1,0.8,1.3,1.3c0.3,0.4,0.5,1,0.5,1.5c0,0.4-0.1,0.8-0.3,1.2
	c-0.2,0.4-0.5,0.7-0.9,0.9c-0.5,0.3-1,0.5-1.6,0.6c-0.7,0.2-1.5,0.2-2.2,0.2c-1.4,0-2.9-0.3-4.2-0.8C54.1,69.1,52.8,68.3,51.7,67.4z
	 M40.6,50.9h8.6v-5.4h-24v5.4h8.6v24.2h6.8L40.6,50.9z"/>
<path class="st4" d="M18.4,30.2h60.2v60.2H18.4V30.2z"/>
<path d="M34.2,80.5l4.6-2.8c0.9,1.6,1.7,2.9,3.6,2.9c1.9,0,3-0.7,3-3.6V57.9h5.7v19.3c0,5.9-3.4,8.5-8.4,8.5
	C38.2,85.7,35.5,83.4,34.2,80.5 M54.2,79.9l4.6-2.7c1.2,2,2.8,3.4,5.6,3.4c2.3,0,3.8-1.2,3.8-2.8c0-1.9-1.5-2.6-4.1-3.8l-1.4-0.6
	c-4.1-1.7-6.8-3.9-6.8-8.5c0-4.2,3.2-7.5,8.3-7.5c3.6,0,6.2,1.3,8,4.5l-4.4,2.8c-1-1.7-2-2.4-3.6-2.4c-1.7,0-2.7,1.1-2.7,2.4
	c0,1.7,1.1,2.4,3.5,3.4l1.4,0.6c4.8,2.1,7.5,4.2,7.5,8.9c0,5.1-4,7.9-9.4,7.9C59.3,85.7,55.9,83.2,54.2,79.9"/>
</svg>
