<?xml version="1.0" encoding="UTF-8" standalone="no"?>
<!DOCTYPE svg PUBLIC "-//W3C//DTD SVG 1.1//EN" "http://www.w3.org/Graphics/SVG/1.1/DTD/svg11.dtd">
<svg width="100%" height="100%" viewBox="0 0 99 118" version="1.1" xmlns="http://www.w3.org/2000/svg" xmlns:xlink="http://www.w3.org/1999/xlink" xml:space="preserve" xmlns:serif="http://www.serif.com/" style="fill-rule:evenodd;clip-rule:evenodd;stroke-linejoin:round;stroke-miterlimit:2;">
    <path d="M10.1,102.1L1.5,5.1L96.5,5.1L87.9,102.1L48.9,112.9" style="fill:rgb(247,223,30);fill-rule:nonzero;"/>
    <path d="M70.5,52.7L68,51.7C63.8,49.8 62,48.6 62,45.6C62,43.2 63.8,41.3 66.7,41.3C69.5,41.3 71.3,42.5 73,45.6L80.6,40.6C77.4,34.8 72.9,32.6 66.7,32.6C57.9,32.6 52.3,38.3 52.3,45.8C52.3,53.9 57,57.8 64.1,60.8L66.5,61.9C71,63.9 73.6,65.1 73.6,68.5C73.6,71.3 71,73.4 67,73.4C62.2,73.4 59.4,70.8 57.3,67.3L49.3,72C52.2,77.8 58,82.2 67.1,82.2C76.4,82.2 83.3,77.3 83.3,68.3C83.5,60.1 78.8,56.4 70.5,52.7Z" style="fill-rule:nonzero;"/>
    <path d="M34.3,67.1C34.3,72.1 32.3,73.4 29,73.4C25.6,73.4 24.2,71.1 22.7,68.3L14.7,73.2C17,78.2 21.6,82.3 29.4,82.3C38.1,82.3 44,77.6 44,67.3L44,33.3L34.2,33.3L34.2,67.1L34.3,67.1Z" style="fill-rule:nonzero;"/>
</svg>
