<?xml version="1.0" encoding="UTF-8" standalone="no"?>
<!DOCTYPE svg PUBLIC "-//W3C//DTD SVG 1.1//EN" "http://www.w3.org/Graphics/SVG/1.1/DTD/svg11.dtd">
<svg width="100%" height="100%" viewBox="0 0 99 118" version="1.1" xmlns="http://www.w3.org/2000/svg" xmlns:xlink="http://www.w3.org/1999/xlink" xml:space="preserve" xmlns:serif="http://www.serif.com/" style="fill-rule:evenodd;clip-rule:evenodd;stroke-linejoin:round;stroke-miterlimit:2;">
    <path d="M10.2,102.1L1.6,5.1L96.6,5.1L88,102.1L49,112.9" style="fill:rgb(255,62,0);fill-rule:nonzero;"/>
    <path d="M40.8,79.5C40.4,79.7 39.9,79.9 39.5,80C37.5,80.5 35.4,79.7 34.2,78C33.6,77.2 33.3,76 33.4,75L33.5,74.3L32.8,74.1C29.9,73.2 27.3,71.9 24.8,70.1L23.8,69.4L23.4,70.6C23.3,71.2 23.1,71.8 23,72.5C22.3,76.5 23.2,80.6 25.6,83.9C29.5,89.5 36.4,92.1 43,90.4C44.5,89.9 45.9,89.3 47.2,88.5L49,87.4L49,74.3L40.8,79.5Z" style="fill:white;fill-rule:nonzero;"/>
    <path d="M30.3,38.4C26.9,40.4 24.6,43.9 23.9,47.8C23.1,51.8 24.1,55.9 26.4,59.2C30.3,64.8 37.2,67.4 43.8,65.7C45.3,65.3 46.7,64.7 48,63.9L49,63.3L49,50.7L42.1,55.1C41.7,55.3 41.2,55.5 40.8,55.6C38.8,56.2 36.7,55.4 35.5,53.7C34.9,52.8 34.6,51.5 34.8,50.3C35,49.1 35.7,48.2 36.7,47.5L49,39.7L49,26.6L30.3,38.4Z" style="fill:white;fill-rule:nonzero;"/>
    <path d="M72.4,30C68.5,24.4 61.6,21.8 55,23.5C53.5,24 52.1,24.6 50.8,25.4L49,26.5L49,39.6L57.1,34.4C57.5,34.2 58,34 58.4,33.9C60.4,33.3 62.5,34.1 63.7,35.8C64.3,36.6 64.6,37.8 64.5,38.8L64.4,39.5L65.1,39.7C68,40.6 70.6,41.9 73.1,43.7L74.1,44.4L74.5,43.2C74.7,42.6 74.9,42 75,41.3C75.7,37.4 74.8,33.3 72.4,30Z" style="fill:white;fill-rule:nonzero;"/>
    <path d="M55.8,58.9C56.2,58.7 56.7,58.5 57.1,58.4C59.1,57.8 61.2,58.6 62.4,60.3C63,61.2 63.3,62.5 63.1,63.7C62.9,64.9 62.2,65.8 61.2,66.5L49,74.3L49,87.4L67.7,75.5C71.1,73.5 73.4,70 74.1,66.1C74.8,62.1 73.9,58 71.5,54.7C67.6,49.1 60.7,46.5 54.1,48.2C52.6,48.7 51.2,49.3 49.9,50.1L49,50.7L49,63.3L55.8,58.9Z" style="fill:white;fill-rule:nonzero;"/>
</svg>
