<?xml version="1.0" encoding="utf-8"?>
<!-- Generator: Adobe Illustrator 27.0.0, SVG Export Plug-In . SVG Version: 6.00 Build 0)  -->
<svg version="1.1" id="Layer_1" xmlns="http://www.w3.org/2000/svg" xmlns:xlink="http://www.w3.org/1999/xlink" x="0px" y="0px"
	 viewBox="0 0 98.1 118" style="enable-background:new 0 0 98.1 118;" xml:space="preserve">
<style type="text/css">
	.st0{fill:#F7DF1E;}
	.st1{fill:#F8E58F;}
	.st2{fill:#333333;}
</style>
<path class="st0" d="M10.6,102.5L2,5.5h95l-8.6,97l-39,10.8"/>
<path class="st1" d="M50.5,105V13.5h38.8l-7.4,82.8"/>
<path d="M40.9,64.8c0,2.9-1.1,3.6-3,3.6c-1.9,0-2.7-1.3-3.6-2.9l-4.6,2.8c1.3,2.9,4,5.2,8.5,5.2c5,0,8.4-2.6,8.4-8.5V45.7h-5.7V64.8
	z"/>
<path class="st2" d="M61.9,56.5l-1.4-0.6c-2.4-1-3.5-1.7-3.5-3.4c0-1.3,1-2.4,2.7-2.4c1.6,0,2.6,0.7,3.6,2.4l4.4-2.8
	c-1.8-3.2-4.4-4.5-8-4.5c-5.1,0-8.3,3.3-8.3,7.5c0,4.6,2.7,6.8,6.8,8.5l1.4,0.6c2.6,1.2,4.1,1.9,4.1,3.8c0,1.6-1.5,2.8-3.8,2.8
	c-2.8,0-4.4-1.4-5.6-3.4l-4.6,2.7c1.7,3.3,5.1,5.8,10.3,5.6c5.4,0,9.4-2.8,9.4-7.9C69.4,60.7,66.7,58.6,61.9,56.5z"/>
</svg>
