<?xml version="1.0" encoding="utf-8"?>
<!-- Generator: Adobe Illustrator 27.0.0, SVG Export Plug-In . SVG Version: 6.00 Build 0)  -->
<svg version="1.1" id="Layer_1" xmlns="http://www.w3.org/2000/svg" xmlns:xlink="http://www.w3.org/1999/xlink" x="0px" y="0px"
	 viewBox="0 0 98.1 118" style="enable-background:new 0 0 98.1 118;" xml:space="preserve">
<style type="text/css">
	.st0{fill:#E44D26;}
	.st1{fill:#F16529;}
	.st2{fill:#FF3E00;}
	.st3{fill:#FFFFFF;}
</style>
<path class="st0" d="M10.2,102.1l-8.6-97h95l-8.6,97L49,112.9"/>
<path class="st1" d="M49,104.6V13.1h38.8l-7.4,82.8"/>
<path class="st2" d="M80.9,24.7C72.8,13,56.6,9.6,45,17L24.6,30.1C19,33.5,15.1,39.3,14,45.7c-1,5.4-0.1,11,2.5,15.8
	c-1.8,2.7-3,5.7-3.5,8.8c-1.2,6.6,0.4,13.5,4.2,18.9c8.2,11.7,24.2,15.1,35.8,7.7l20.5-13c5.6-3.5,9.4-9.2,10.6-15.7
	c1-5.4,0.1-11-2.5-15.8c1.8-2.7,3-5.7,3.5-8.8C86.4,37,84.8,30.1,80.9,24.7"/>
<path class="st3" d="M43,90.4c-6.6,1.7-13.5-0.9-17.4-6.5c-2.4-3.3-3.3-7.4-2.6-11.4c0.1-0.7,0.3-1.3,0.4-1.9l0.4-1.2l1,0.7
	c2.5,1.8,5.1,3.1,8,4l0.7,0.2l-0.1,0.7c-0.1,1,0.2,2.2,0.8,3c1.2,1.7,3.3,2.5,5.3,2c0.4-0.1,0.9-0.3,1.3-0.5l20.4-13
	c1-0.7,1.7-1.6,1.9-2.8s-0.1-2.5-0.7-3.4c-1.2-1.7-3.3-2.5-5.3-1.9c-0.4,0.1-0.9,0.3-1.3,0.5l-7.8,5c-1.3,0.8-2.7,1.4-4.2,1.8
	c-6.6,1.7-13.5-0.9-17.4-6.5c-2.3-3.3-3.3-7.4-2.5-11.4c0.7-3.9,3-7.4,6.4-9.4l20.5-13c1.3-0.8,2.7-1.4,4.2-1.9
	c6.6-1.7,13.5,0.9,17.4,6.5c2.4,3.3,3.3,7.4,2.6,11.4c-0.1,0.7-0.3,1.3-0.5,1.9l-0.4,1.2l-1-0.7c-2.5-1.8-5.1-3.1-8-4l-0.7-0.2
	l0.1-0.7c0.1-1-0.2-2.2-0.8-3c-1.2-1.7-3.3-2.5-5.3-1.9c-0.4,0.1-0.9,0.3-1.3,0.5l-20.4,13c-1,0.7-1.7,1.6-1.9,2.8
	c-0.2,1.2,0.1,2.5,0.7,3.4c1.2,1.7,3.3,2.5,5.3,1.9c0.4-0.1,0.9-0.3,1.3-0.5l7.8-5c1.3-0.8,2.7-1.4,4.2-1.9
	c6.6-1.7,13.5,0.9,17.4,6.5c2.4,3.3,3.3,7.4,2.6,11.4c-0.7,3.9-3,7.4-6.4,9.4l-20.5,13C45.9,89.3,44.5,89.9,43,90.4"/>
</svg>
