<?xml version="1.0" encoding="utf-8"?>
<!-- Generator: Adobe Illustrator 27.0.0, SVG Export Plug-In . SVG Version: 6.00 Build 0)  -->
<svg version="1.1" id="Layer_1" xmlns="http://www.w3.org/2000/svg" xmlns:xlink="http://www.w3.org/1999/xlink" x="0px" y="0px"
	 viewBox="0 0 98.1 118" style="enable-background:new 0 0 98.1 118;" xml:space="preserve">
<style type="text/css">
	.st0{fill:#2F88FF;}
	.st1{fill:#2FA6FF;}
	.st2{fill:#FFFFFF;}
	.st3{fill:#EBEBEB;}
</style>
<path class="st0" d="M11.2,102.1l-8.6-97h95l-8.6,97l-39,10.8"/>
<path class="st1" d="M49,104.6V13.1h38.8l-7.4,82.8"/>
<path class="st2" d="M70.3,84.2c3.9,0,7.1-3.2,7.1-7.2v-7.2c0-3.9-3.1-7.2-7.1-7.2c0,0-10.6,0-21.3,0c0,7.3,0,14.5,0,21.6H70.3z
	 M67.6,70.6c1.5,0,2.6,1.2,2.6,2.7c0,1.5-1.2,2.7-2.6,2.7c-1.5,0-2.6-1.2-2.6-2.7C64.9,71.8,66.1,70.6,67.6,70.6z M58.7,70.6
	c1.5,0,2.6,1.2,2.6,2.7c0,1.5-1.2,2.7-2.6,2.7c-1.5,0-2.6-1.2-2.6-2.7C56.1,71.8,57.2,70.6,58.7,70.6z"/>
<path class="st2" d="M77.4,48.2V41c0-3.9-3.1-7.2-7.1-7.2c0,0-10.6,0-21.3,0c0,7.1,0,14.3,0,21.6h21.3
	C74.2,55.4,77.4,52.3,77.4,48.2z M58.7,47.3c-1.5,0-2.6-1.2-2.6-2.7c0-1.5,1.2-2.7,2.6-2.7c1.5,0,2.6,1.2,2.6,2.7
	C61.4,46.2,60.2,47.3,58.7,47.3z M66.7,47.3c-1.4,0-2.6-1.2-2.6-2.7c0-1.5,1.2-2.7,2.6-2.7c1.5,0,2.6,1.2,2.6,2.7
	C69.3,46.2,68.1,47.3,66.7,47.3z"/>
<path class="st3" d="M20.7,69.8V77c0,3.9,3.1,7.2,7.1,7.2H49c0-7.1,0-14.3,0-21.6c-10.6,0-21.2,0-21.2,0
	C23.9,62.6,20.7,65.7,20.7,69.8z"/>
<path class="st3" d="M27.8,33.8c-3.9,0-7.1,3.2-7.1,7.2v7.2c0,3.9,3.1,7.2,7.1,7.2H49c0-7.3,0-14.5,0-21.6
	C38.4,33.8,27.8,33.8,27.8,33.8z"/>
</svg>
