<?xml version="1.0" encoding="utf-8"?>
<!-- Generator: Adobe Illustrator 27.0.0, SVG Export Plug-In . SVG Version: 6.00 Build 0)  -->
<svg version="1.1" id="Layer_1" xmlns="http://www.w3.org/2000/svg" xmlns:xlink="http://www.w3.org/1999/xlink" x="0px" y="0px"
	 viewBox="0 0 98.1 118" style="enable-background:new 0 0 98.1 118;" xml:space="preserve">
<style type="text/css">
	.st0{fill:#2F88FF;}
	.st1{fill:#2FBFFF;}
	.st2{fill:#FFFFFF;}
</style>
<path class="st0" d="M11.2,102.1l-8.6-97h95l-8.6,97l-39,10.8"/>
<path class="st1" d="M49,104.6V13.1h38.8l-7.4,82.8"/>
<path class="st2" d="M23.4,29c-4.7,0-8.6,3.8-8.6,8.6v8.6c0,4.7,3.8,8.6,8.6,8.6h51.4c4.7,0,8.6-3.8,8.6-8.6v-8.6
	c0-4.7-3.8-8.6-8.6-8.6H23.4z M60.8,38.7c1.8,0,3.2,1.4,3.2,3.2s-1.4,3.2-3.2,3.2c-1.8,0-3.2-1.4-3.2-3.2S59,38.7,60.8,38.7z
	 M67.2,41.9c0-1.8,1.4-3.2,3.2-3.2c1.8,0,3.2,1.4,3.2,3.2s-1.4,3.2-3.2,3.2C68.7,45.1,67.2,43.7,67.2,41.9z M23.4,63.3
	c-4.7,0-8.6,3.8-8.6,8.6v8.6c0,4.7,3.8,8.6,8.6,8.6h51.4c4.7,0,8.6-3.8,8.6-8.6v-8.6c0-4.7-3.8-8.6-8.6-8.6H23.4z M60.8,72.9
	c1.8,0,3.2,1.4,3.2,3.2s-1.4,3.2-3.2,3.2c-1.8,0-3.2-1.4-3.2-3.2S59,72.9,60.8,72.9z M68.3,76.1c0-1.8,1.4-3.2,3.2-3.2
	s3.2,1.4,3.2,3.2s-1.4,3.2-3.2,3.2S68.3,77.9,68.3,76.1z"/>
</svg>
